<svg width="904" height="424" viewBox="0 0 904 424" fill="none" xmlns="http://www.w3.org/2000/svg">
<g clip-path="url(#clip0)">
<path d="M454.9 424C700.027 424 898.742 412.653 898.742 398.656C898.742 384.659 700.027 373.312 454.9 373.312C209.773 373.312 11.0586 384.659 11.0586 398.656C11.0586 412.653 209.773 424 454.9 424Z" fill="#F2F2F2"/>
<path d="M437.89 121.206C365.576 121.206 313.655 161.222 313.655 254.595C313.655 360.418 365.576 388.429 437.89 388.429C510.204 388.429 565.217 357.75 565.217 254.595C565.217 144.326 510.204 121.206 437.89 121.206ZM438.365 353.303C388.279 353.303 362.112 327.959 362.112 254.663C362.112 189.991 389.35 155.887 439.436 155.887C489.523 155.887 516.761 178.289 516.761 254.663C516.761 326.111 488.451 353.303 438.365 353.303Z" fill="#2F2E41"/>
<path d="M270.353 314.62H240.454V238.679C240.454 234.646 238.596 230.778 235.29 227.925C231.983 225.073 227.498 223.471 222.822 223.471H215.816C213.5 223.471 211.208 223.864 209.068 224.629C206.929 225.393 204.985 226.513 203.348 227.925C201.711 229.338 200.412 231.014 199.526 232.859C198.64 234.705 198.184 236.682 198.184 238.679V314.62H113.849C112.114 314.62 110.409 314.234 108.898 313.498C107.388 312.762 106.123 311.701 105.228 310.42C104.332 309.138 103.836 307.678 103.787 306.182C103.738 304.687 104.139 303.205 104.949 301.882L194.208 156.168C195.32 154.351 195.995 152.359 196.19 150.311C196.386 148.263 196.098 146.203 195.345 144.253C194.592 142.304 193.388 140.507 191.807 138.97C190.226 137.433 188.301 136.188 186.147 135.311L180.877 133.165C176.786 131.498 172.109 131.252 167.813 132.477C163.517 133.703 159.931 136.305 157.798 139.747L48.9359 315.4C47.0821 318.391 46.1123 321.73 46.1123 325.122C46.1123 327.83 46.7307 330.512 47.9323 333.014C49.1338 335.516 50.895 337.789 53.1152 339.704C55.3353 341.619 57.9711 343.138 60.8719 344.175C63.7727 345.211 66.8818 345.745 70.0216 345.745H198.184V393.765C198.184 396.159 198.73 398.529 199.792 400.741C200.855 402.953 202.411 404.962 204.374 406.655C206.336 408.348 208.666 409.691 211.231 410.607C213.795 411.523 216.543 411.995 219.319 411.995H219.319C222.094 411.995 224.843 411.523 227.407 410.607C229.971 409.691 232.301 408.348 234.264 406.655C236.226 404.962 237.783 402.953 238.845 400.741C239.907 398.529 240.454 396.159 240.454 393.765V345.745H270.353C275.138 345.745 279.727 344.105 283.111 341.187C286.494 338.268 288.395 334.31 288.395 330.182C288.395 326.055 286.494 322.097 283.111 319.178C279.727 316.26 275.138 314.62 270.353 314.62Z" fill="#00BFA6"/>
<path d="M823.995 314.62H794.097V238.679C794.097 234.646 792.239 230.778 788.932 227.925C785.626 225.073 781.141 223.471 776.464 223.471H769.458C767.143 223.471 764.85 223.864 762.711 224.629C760.572 225.393 758.628 226.513 756.99 227.925C755.353 229.338 754.054 231.014 753.168 232.859C752.282 234.705 751.826 236.682 751.826 238.679V314.62H667.492C665.757 314.62 664.051 314.234 662.541 313.498C661.03 312.762 659.766 311.701 658.87 310.42C657.975 309.138 657.479 307.678 657.43 306.182C657.381 304.687 657.781 303.205 658.592 301.882L747.85 156.168C748.963 154.351 749.637 152.359 749.833 150.311C750.028 148.263 749.741 146.203 748.987 144.253C748.234 142.304 747.031 140.507 745.45 138.97C743.869 137.433 741.943 136.188 739.789 135.311L734.52 133.165C730.429 131.498 725.751 131.252 721.455 132.477C717.159 133.703 713.574 136.305 711.441 139.747L602.579 315.4C600.725 318.391 599.755 321.73 599.755 325.122C599.755 330.591 602.274 335.837 606.758 339.704C611.242 343.572 617.323 345.745 623.664 345.745H751.826V393.765C751.826 398.6 754.053 403.236 758.016 406.655C761.98 410.074 767.356 411.995 772.961 411.995C778.567 411.995 783.943 410.074 787.906 406.655C791.87 403.236 794.097 398.6 794.097 393.765V345.745H823.995C828.78 345.745 833.37 344.105 836.753 341.187C840.137 338.268 842.038 334.31 842.038 330.182C842.038 326.055 840.137 322.097 836.753 319.178C833.37 316.26 828.781 314.62 823.995 314.62Z" fill="#00BFA6"/>
<path d="M278.601 305.728H248.702V229.787C248.702 227.79 248.246 225.812 247.36 223.967C246.474 222.122 245.175 220.445 243.538 219.033C241.9 217.621 239.957 216.5 237.817 215.736C235.678 214.972 233.385 214.578 231.07 214.578H224.064C219.388 214.578 214.903 216.181 211.596 219.033C208.289 221.885 206.432 225.753 206.432 229.787V305.728H122.097C120.362 305.728 118.657 305.341 117.146 304.605C115.636 303.869 114.371 302.809 113.476 301.527C112.58 300.245 112.084 298.786 112.035 297.29C111.987 295.794 112.387 294.313 113.197 292.99L202.456 147.275C203.568 145.459 204.243 143.466 204.438 141.419C204.634 139.371 204.346 137.31 203.593 135.361C202.84 133.412 201.636 131.614 200.055 130.077C198.474 128.54 196.549 127.296 194.395 126.418L189.126 124.272C185.034 122.606 180.357 122.36 176.061 123.585C171.765 124.81 168.179 127.413 166.046 130.855L57.184 306.507C55.3302 309.499 54.3604 312.838 54.3604 316.23V316.23C54.3604 321.699 56.8794 326.944 61.3632 330.812C65.8471 334.679 71.9285 336.852 78.2696 336.852H206.432V384.872C206.432 387.266 206.978 389.637 208.04 391.849C209.103 394.06 210.659 396.07 212.622 397.763C214.585 399.456 216.914 400.798 219.479 401.715C222.043 402.631 224.791 403.102 227.567 403.102H227.567C233.172 403.102 238.548 401.182 242.512 397.763C246.475 394.344 248.702 389.707 248.702 384.872V336.852H278.601C280.97 336.852 283.316 336.45 285.505 335.667C287.694 334.885 289.683 333.739 291.359 332.294C293.034 330.849 294.363 329.133 295.27 327.245C296.177 325.357 296.643 323.334 296.643 321.29V321.29C296.643 319.246 296.177 317.223 295.27 315.335C294.363 313.447 293.034 311.731 291.359 310.286C289.683 308.841 287.694 307.695 285.505 306.912C283.316 306.13 280.97 305.728 278.601 305.728V305.728Z" stroke="#2F2E41" stroke-miterlimit="10"/>
<path d="M839.46 305.728H809.562V229.787C809.562 225.753 807.704 221.885 804.397 219.033C801.09 216.181 796.606 214.578 791.929 214.578H784.923C782.608 214.578 780.315 214.972 778.176 215.736C776.036 216.5 774.093 217.621 772.455 219.033C770.818 220.445 769.519 222.122 768.633 223.967C767.747 225.812 767.291 227.79 767.291 229.787V305.728H682.957C681.222 305.728 679.516 305.341 678.006 304.605C676.495 303.869 675.231 302.809 674.335 301.527C673.44 300.245 672.944 298.786 672.895 297.29C672.846 295.794 673.246 294.313 674.057 292.99L763.315 147.275C764.428 145.459 765.102 143.466 765.298 141.419C765.493 139.371 765.206 137.31 764.452 135.361C763.699 133.412 762.496 131.614 760.915 130.077C759.334 128.54 757.408 127.296 755.254 126.418L749.985 124.272C745.893 122.606 741.216 122.36 736.92 123.585C732.624 124.81 729.039 127.413 726.906 130.855L618.043 306.507C616.19 309.499 615.22 312.838 615.22 316.23C615.22 321.699 617.739 326.944 622.223 330.812C626.706 334.679 632.788 336.852 639.129 336.852H767.291V384.872C767.291 389.707 769.518 394.344 773.481 397.763C777.445 401.182 782.821 403.102 788.426 403.102V403.102C794.032 403.102 799.407 401.182 803.371 397.763C807.335 394.344 809.562 389.707 809.562 384.872V336.852H839.46C841.83 336.852 844.176 336.45 846.365 335.667C848.554 334.885 850.543 333.739 852.218 332.294C853.893 330.849 855.223 329.133 856.129 327.245C857.036 325.357 857.503 323.334 857.503 321.29V321.29C857.503 317.163 855.602 313.204 852.218 310.286C848.835 307.367 844.245 305.728 839.46 305.728V305.728Z" stroke="#2F2E41" stroke-miterlimit="10"/>
<path d="M454.385 113.202C382.071 113.202 330.15 153.219 330.15 246.592C330.15 352.414 382.071 380.426 454.385 380.426C526.699 380.426 581.712 349.746 581.712 246.592C581.712 136.323 526.699 113.202 454.385 113.202ZM454.86 345.3C404.774 345.3 378.607 319.955 378.607 246.66C378.607 181.988 405.845 147.883 455.931 147.883C506.018 147.883 533.256 170.285 533.256 246.66C533.256 318.107 504.947 345.3 454.86 345.3V345.3Z" stroke="#2F2E41" stroke-miterlimit="10"/>
<path d="M396.421 22.6081C402.416 22.6081 407.276 18.4162 407.276 13.2452C407.276 8.07424 402.416 3.88232 396.421 3.88232C390.425 3.88232 385.565 8.07424 385.565 13.2452C385.565 18.4162 390.425 22.6081 396.421 22.6081Z" fill="#2F2E41"/>
<path d="M422.896 68.0523C439.712 68.0523 453.344 52.8183 453.344 34.0262C453.344 15.234 439.712 0 422.896 0C406.081 0 392.449 15.234 392.449 34.0262C392.449 52.8183 406.081 68.0523 422.896 68.0523Z" fill="#2F2E41"/>
<path opacity="0.1" d="M422.896 57.7762C407.644 57.7762 395.011 45.2423 392.795 28.8882C392.564 30.5937 392.449 32.3093 392.449 34.0264C392.449 52.8185 406.081 68.0525 422.896 68.0525C439.712 68.0525 453.344 52.8185 453.344 34.0264C453.344 32.3093 453.229 30.5937 452.998 28.8882C450.782 45.2423 438.149 57.7762 422.896 57.7762Z" fill="black"/>
<path d="M484.854 133.673C484.2 135.991 481.381 137.847 478.258 139.144C471.694 141.87 463.596 142.684 455.742 142.957C453.739 143.062 451.729 143.03 449.731 142.861C445.86 142.538 442.228 141.098 439.423 138.774C439.223 138.661 439.059 138.507 438.947 138.325C438.835 138.143 438.778 137.939 438.781 137.733C438.785 137.527 438.849 137.325 438.968 137.146C439.087 136.967 439.256 136.817 439.46 136.71C443.641 132.748 450.619 130.319 457.648 128.57C462.978 127.244 472.273 123.809 478.086 124.272C483.716 124.721 485.679 130.747 484.854 133.673Z" fill="#2F2E41"/>
<path opacity="0.1" d="M484.854 133.673C484.2 135.991 481.381 137.847 478.258 139.144C471.694 141.87 463.596 142.684 455.742 142.957C453.739 143.062 451.729 143.03 449.731 142.861C445.86 142.538 442.228 141.098 439.423 138.774C439.223 138.661 439.059 138.507 438.947 138.325C438.835 138.143 438.778 137.939 438.781 137.733C438.785 137.527 438.849 137.325 438.968 137.146C439.087 136.967 439.256 136.817 439.46 136.71C443.641 132.748 450.619 130.319 457.648 128.57C462.978 127.244 472.273 123.809 478.086 124.272C483.716 124.721 485.679 130.747 484.854 133.673Z" fill="black"/>
<path d="M401.388 116.352C399.384 119.739 399.021 123.674 400.379 127.292C401.76 130.883 404.346 134.039 407.808 136.361C416.302 142.234 427.992 143.042 438.877 142.96C448.417 142.889 457.943 142.326 467.405 141.274C470.576 141.032 473.691 140.408 476.662 139.42C480.214 138.094 483.336 135.663 484.601 132.507C485.866 129.351 484.968 125.487 481.964 123.381C479.325 121.531 475.685 121.276 472.29 121.1L452.864 120.093C454.783 118.418 457.339 117.471 459.676 116.253C462.777 114.637 464.837 111.924 467.091 109.478C470.565 105.897 474.345 102.545 478.399 99.4505C479.031 102.579 481.325 105.148 484.025 107.306C486.725 109.464 489.838 111.202 492.645 113.257C499.442 118.235 504.337 124.99 511.485 129.587C516.403 128.472 521.001 126.492 524.989 123.772L522.21 119.431C521.979 118.984 521.618 118.596 521.163 118.304C520.377 117.887 519.363 118.102 518.45 117.984C516.009 117.668 514.943 115.237 513.985 113.275C511.356 107.889 506.322 103.71 502.022 99.1933C498.849 95.859 496.034 92.2826 493.612 88.5083C492.167 86.2573 490.845 83.9136 488.885 81.9743C486.925 80.035 484.179 78.5103 481.196 78.5049C478.56 78.5001 476.13 79.6541 473.864 80.815C466.962 84.3508 460.322 88.2529 453.981 92.4986C450.663 94.7206 447.365 97.0682 443.473 98.4308C441.834 99.0044 440.107 99.3964 438.534 100.094C435.78 101.317 433.69 103.385 431.44 105.221C423.415 111.77 412.428 116.012 401.388 116.352Z" fill="#2F2E41"/>
<path d="M442.008 69.7422C441.918 71.7438 441.424 73.7167 440.549 75.5723C440.105 76.4978 439.446 77.3345 438.611 78.0303C437.776 78.7261 436.784 79.2661 435.696 79.6166C434.152 79.9735 432.533 80.0188 430.965 79.749C429.597 79.6259 428.28 79.2387 427.11 78.6164C425.288 77.5362 424.38 75.6088 424.049 73.7225C423.718 71.8385 423.866 69.9134 423.655 68.0157C423.448 66.4829 423.11 64.9655 422.643 63.4759C422.5 62.9803 422.355 62.4871 422.212 61.9938C422.071 61.5005 421.934 61.0073 421.807 60.514C421.69 60.0504 421.582 59.5846 421.489 59.1164C421.412 58.7213 421.343 58.324 421.293 57.9244C421.247 56.7396 421.018 55.5654 420.613 54.4327C420.232 53.6981 419.756 53.0032 419.193 52.3614C418.953 52.0646 418.72 51.7677 418.505 51.4594C417.885 50.6582 417.597 49.6998 417.687 48.7396C417.713 48.5911 417.754 48.4451 417.811 48.3034C417.833 48.2486 417.856 48.1938 417.883 48.1413C418.121 48.0855 418.34 47.9804 418.52 47.8351C418.701 47.6899 418.837 47.5088 418.918 47.3077C419.009 46.8757 418.966 46.4306 418.794 46.0175C418.596 45.4402 418.325 44.8835 417.986 44.3573C417.764 44.0101 417.009 43.3844 417.004 42.9871C416.993 42.1878 418.804 41.5438 419.538 41.2286C421.776 40.2618 424.273 39.8252 426.771 39.9635C428.373 40.0571 430.11 40.4819 430.994 41.6397C431.788 42.6833 431.682 44.0352 432.021 45.2479C432.057 45.4241 432.143 45.5898 432.273 45.7297C432.445 45.8655 432.663 45.9517 432.895 45.9763C433.287 46.0436 433.689 46.0575 434.086 46.0174H434.089C434.194 46.0103 434.298 45.9973 434.401 45.9786C435.02 45.8802 435.605 45.6624 436.112 45.3415C436.44 45.2661 436.771 45.2045 437.105 45.1565C437.118 45.1553 437.131 45.153 437.144 45.1496C438.471 48.7601 438.643 52.6308 439.728 56.3075C440.266 58.1367 441.036 59.943 441.145 61.8248C441.153 61.907 441.155 61.9914 441.158 62.0759C441.174 62.6811 441.118 63.2908 441.147 63.8937C441.158 64.1652 441.193 64.4355 441.253 64.7021C441.372 65.1309 441.52 65.5533 441.695 65.9673L441.703 65.9878C441.754 66.1203 441.801 66.255 441.841 66.3897C441.87 66.4879 441.897 66.5839 441.918 66.682L441.921 66.6889C442.117 67.698 442.146 68.7259 442.008 69.7422Z" fill="#FBBEBE"/>
<path d="M423.426 46.1295C432.054 46.1295 439.047 40.0972 439.047 32.6561C439.047 25.2149 432.054 19.1826 423.426 19.1826C414.799 19.1826 407.806 25.2149 407.806 32.6561C407.806 40.0972 414.799 46.1295 423.426 46.1295Z" fill="#FBBEBE"/>
<path d="M522.6 106.066C522.147 102.39 520.632 98.8707 518.194 95.8305C518.599 97.9086 519.005 99.986 519.412 102.063C518.906 102.189 518.369 102.185 517.866 102.051C517.362 101.918 516.915 101.661 516.579 101.311C515.921 100.603 515.418 99.7974 515.094 98.934C513.319 95.134 510.998 91.5412 508.186 88.2397C498.242 87.5249 488.411 83.9693 479.666 79.8245C470.919 75.682 462.732 70.7151 454.101 66.3967C452.605 65.6166 451.046 64.9297 449.436 64.3414C446.735 63.4074 443.704 62.9233 441.144 61.8249C440.972 61.7518 440.8 61.6742 440.63 61.5942C440.052 61.3229 439.504 61.0056 438.994 60.6465C438.718 60.4535 438.457 60.246 438.21 60.0254C436.933 58.7436 435.92 57.2821 435.216 55.7047C433.842 53.0831 433.352 49.9203 431.98 47.2987C432.611 46.7906 433.319 46.3595 434.085 46.0176H434.088C434.199 45.9673 434.31 45.9194 434.424 45.8737C434.967 45.6533 435.531 45.4752 436.111 45.3416C436.439 45.2662 436.77 45.2046 437.104 45.1566C437.117 45.1554 437.13 45.1531 437.143 45.1498C438.69 44.9324 440.275 45.0405 441.763 45.4649C443.94 46.0998 445.774 47.3672 447.604 48.5661C450.576 50.3722 453.427 52.3225 456.142 54.4076C457.652 55.6545 459.028 57.0247 460.651 58.1574C462 59.0552 463.422 59.868 464.906 60.5894C473.688 65.1019 482.471 69.6136 491.255 74.1245C494.228 75.6523 497.204 77.18 500.111 78.7969C504.527 81.2541 508.785 83.9167 513.039 86.5772C515.546 88.1438 518.053 89.7111 520.558 91.2792C521.381 91.7315 522.102 92.3069 522.69 92.9782C523.209 93.7405 523.531 94.5902 523.635 95.4697C524.264 99.0227 523.909 102.654 522.6 106.066Z" fill="#FBBEBE"/>
<path d="M445.881 79.8748C444.827 83.9511 440.051 86.4152 437.554 89.9959C434.451 94.4398 435.716 99.6054 436.881 104.696C434.753 106.278 432.623 107.861 430.493 109.443C429.317 110.313 428.142 111.188 426.876 111.958C425.031 113.024 423.102 113.979 421.104 114.817C419.219 115.653 417.334 116.489 415.449 117.326C413.697 118.176 411.84 118.855 409.913 119.35C406.198 120.172 402.253 119.596 398.579 118.644C398.145 118.546 397.729 118.399 397.34 118.208C397.11 118.09 396.911 117.934 396.752 117.749C396.389 117.189 396.258 116.539 396.379 115.906C396.752 110.571 398.264 105.349 399.77 100.165C400.575 97.055 401.658 94.0033 403.008 91.0372C404.332 88.4957 405.855 86.0344 407.565 83.6702C409.452 80.6956 411.687 77.8957 414.237 75.3144C415.478 74.3209 416.522 73.1592 417.329 71.8752C418.269 70.0255 417.906 67.904 418.097 65.8898C418.243 64.3765 418.708 62.899 419.471 61.5304V61.5281C419.879 60.7909 420.37 60.0902 420.938 59.4363C421.194 59.9524 421.451 60.4677 421.708 60.9823C421.877 61.3203 422.045 61.6575 422.211 61.994C422.428 62.4279 422.643 62.8602 422.857 63.2911C423.474 64.5288 424.09 65.7658 424.705 67.002C425.37 68.559 426.317 70.0151 427.512 71.3158C428.058 71.9818 428.794 72.5144 429.65 72.8614C430.506 73.2084 431.452 73.358 432.395 73.2956C433.338 73.2333 434.246 72.9611 435.03 72.5056C435.815 72.0501 436.449 71.4269 436.871 70.6969C437.761 69.3342 438.405 67.8627 438.782 66.3329C439.305 64.4702 439.377 62.5345 438.994 60.6467C438.356 57.0111 436.564 53.2979 435.261 49.9204C434.731 48.7943 434.424 47.5993 434.353 46.3853C434.356 46.2489 434.371 46.1129 434.401 45.9788C434.409 45.9446 434.416 45.9081 434.424 45.8738C434.967 45.6534 435.531 45.4753 436.111 45.3417C436.439 45.2664 436.77 45.2047 437.104 45.1567C438.25 50.5096 439.398 55.8624 440.548 61.2153C440.575 61.3409 440.604 61.4665 440.63 61.5943C440.795 62.3616 440.961 63.129 441.147 63.894C441.313 64.5882 441.493 65.2801 441.695 65.9675L441.703 65.988C441.772 66.221 441.843 66.4516 441.917 66.6823L441.92 66.6891C442.124 67.3194 442.351 67.9451 442.608 68.5617C444.165 72.2772 446.879 76.0178 445.881 79.8748Z" fill="#00BFA6"/>
<path d="M509.276 137.159C509.226 137.945 509.403 138.728 509.789 139.441C510.767 140.982 513.112 141.332 515.142 141.476C526.999 142.317 538.929 142.003 550.705 140.542C551.344 140.504 551.964 140.338 552.515 140.057C554.189 139.045 553.157 136.577 551.329 135.787C549.501 134.997 547.331 135.188 545.325 134.846C543.332 134.413 541.435 133.703 539.706 132.744C535.638 130.728 531.63 128.626 527.68 126.438C525.329 125.136 522.554 123.746 519.906 124.518C512.733 126.611 509.228 130.485 509.276 137.159Z" fill="#2F2E41"/>
<path d="M421.867 60.2284V60.2307C421.849 60.3266 421.83 60.4203 421.806 60.5139C421.777 60.6692 421.743 60.8268 421.709 60.982C421.38 62.4321 420.978 63.8754 420.514 65.3095C419.244 69.2716 417.541 73.1698 415.852 77.0108C411.319 87.31 406.786 97.61 402.251 107.911C401.108 110.505 399.966 113.101 398.666 115.643C398.232 116.49 397.785 117.344 397.34 118.208C395.746 121.297 394.216 124.488 393.708 127.776C393.234 129.94 393.179 132.157 393.546 134.337C394.054 136.493 395.572 138.598 397.946 139.395C399.106 139.786 400.766 140.309 400.448 141.348C400.276 141.919 399.524 142.197 398.849 142.293C397.958 142.416 397.046 142.367 396.178 142.152C395.311 141.936 394.509 141.559 393.829 141.046C392.561 140.076 391.587 138.566 389.9 138.404C388.733 138.294 387.658 138.897 386.588 139.32C382.225 141.039 377.142 139.836 372.559 138.614C372.919 137.013 374.783 135.958 376.633 135.639C378.484 135.317 380.398 135.545 382.286 135.502C382.89 135.529 383.49 135.396 384.004 135.12C384.465 134.755 384.788 134.28 384.931 133.755C386.147 130.647 387.051 127.455 387.634 124.214C388.243 120.827 388.497 117.388 389.365 114.042C390.041 111.432 391.084 108.904 391.979 106.342C393.709 101.066 395.13 95.7189 396.236 90.3199C396.795 88.0768 397.196 85.8065 397.435 83.5215C397.586 81.6261 397.515 79.7215 397.727 77.8329C398.082 75.3759 398.676 72.949 399.503 70.5778C400.313 67.9905 401.123 65.4047 401.931 62.8203C403.13 58.9953 404.417 55.0217 407.456 52.0484C408.512 51.0017 409.806 50.1531 411.257 49.5552C412.709 48.9574 414.287 48.623 415.894 48.5728C416.497 48.5721 417.098 48.628 417.687 48.7395C417.785 48.76 417.883 48.7806 417.981 48.8034C418.622 48.9481 419.238 49.1678 419.81 49.4565C420.747 48.9427 421.224 49.1231 421.846 49.9155C422.392 50.7542 422.649 51.7095 422.588 52.6696C422.64 55.2036 422.399 57.7358 421.867 60.2284Z" fill="#FBBEBE"/>
<path d="M422.897 63.2565L422.858 63.2907L422.643 63.4757L420.515 65.3095L419.471 61.5301L415.895 48.5727C416.497 48.5721 417.098 48.628 417.687 48.7394C417.712 48.5909 417.754 48.4449 417.811 48.3032L417.981 48.8033L419.193 52.3612L421.489 59.1162L421.867 60.2284V60.2307L422.897 63.2565Z" fill="#00BFA6"/>
<path d="M436.405 21.9194C436.403 23.1192 436.127 24.3069 435.593 25.4147C435.059 26.5224 434.277 27.5285 433.291 28.3754C432.934 28.6837 432.552 28.969 432.147 29.2292C430.32 30.4171 428.094 31.0601 425.806 31.061H413.104C410.298 31.0573 407.607 30.093 405.624 28.3798C403.641 26.6667 402.527 24.3447 402.527 21.9238C402.527 19.5029 403.641 17.181 405.624 15.4678C407.607 13.7547 410.298 12.7904 413.104 12.7866H425.806C428.613 12.7929 431.303 13.7569 433.289 15.468C435.275 17.1791 436.395 19.4983 436.405 21.9194Z" fill="#2F2E41"/>
<path d="M448.314 22.6081C454.309 22.6081 459.169 18.4162 459.169 13.2452C459.169 8.07424 454.309 3.88232 448.314 3.88232C442.319 3.88232 437.459 8.07424 437.459 13.2452C437.459 18.4162 442.319 22.6081 448.314 22.6081Z" fill="#2F2E41"/>
<path opacity="0.1" d="M448.049 3.88232C447.916 3.88232 447.784 3.88688 447.652 3.89098C450.46 3.97904 453.119 5.00312 455.07 6.74776C457.02 8.49239 458.11 10.8216 458.11 13.2452C458.11 15.6689 457.02 17.9981 455.07 19.7427C453.119 21.4873 450.46 22.5114 447.652 22.5995C447.784 22.6036 447.916 22.6081 448.049 22.6081C450.928 22.6081 453.689 21.6217 455.725 19.8658C457.761 18.1099 458.905 15.7284 458.905 13.2452C458.905 10.762 457.761 8.38054 455.725 6.62466C453.689 4.86877 450.928 3.88232 448.049 3.88232Z" fill="black"/>
<path opacity="0.1" d="M396.421 3.88232C396.554 3.88232 396.686 3.88688 396.818 3.89098C394.01 3.97904 391.351 5.00312 389.4 6.74776C387.45 8.49239 386.36 10.8216 386.36 13.2452C386.36 15.6689 387.45 17.9981 389.4 19.7427C391.351 21.4873 394.01 22.5114 396.818 22.5995C396.686 22.6036 396.554 22.6081 396.421 22.6081C393.543 22.6059 390.785 21.6185 388.751 19.8629C386.718 18.1072 385.575 15.727 385.575 13.2452C385.575 10.7635 386.718 8.38322 388.751 6.62757C390.785 4.87192 393.543 3.88451 396.421 3.88232Z" fill="black"/>
<path opacity="0.1" d="M432.147 29.229C430.32 30.417 428.094 31.06 425.806 31.0609H413.104C410.816 31.06 408.591 30.417 406.764 29.229H432.147Z" fill="black"/>
<path d="M514.171 97.0721C514.171 97.0721 516.907 103.873 519.412 102.063L517.416 93.1724L514.171 97.0721Z" fill="#FBBEBE"/>
<path d="M847.181 304.484C849.73 305.283 852.459 305.561 855.154 305.295C857.848 305.03 860.435 304.228 862.709 302.953C864.982 301.678 866.882 299.965 868.257 297.949C869.633 295.933 870.446 293.668 870.634 291.335C870.822 289.001 870.379 286.662 869.34 284.501C868.301 282.34 866.694 280.417 864.646 278.884C862.598 277.35 860.166 276.247 857.54 275.663C854.913 275.079 852.166 275.028 849.513 275.516L849.952 283.29L845.687 276.628C841.502 278.324 838.269 281.384 836.698 285.135C836.14 286.449 835.801 287.825 835.691 289.221C835.422 292.497 836.398 295.759 838.471 298.513C840.545 301.267 843.603 303.364 847.181 304.484Z" fill="#57B894"/>
<path d="M868.281 394.653C866.776 388.041 873.299 382.18 879.742 378.37C886.185 374.56 893.714 370.816 895.912 364.351C899.072 355.058 889.66 346.548 882.335 339.21C876.901 333.764 872.234 327.781 868.432 321.387C866.909 318.824 865.508 316.144 865.107 313.284C864.529 309.165 866.064 305.066 867.609 301.137C872.758 288.049 878.263 275.07 884.125 262.201" stroke="#2F2E41" stroke-miterlimit="10"/>
<path d="M847.903 302.483C850.451 303.282 853.181 303.56 855.875 303.294C858.57 303.028 861.156 302.226 863.43 300.951C865.703 299.676 867.603 297.963 868.978 295.947C870.354 293.931 871.167 291.667 871.355 289.333C871.543 287 871.1 284.66 870.061 282.5C869.022 280.339 867.415 278.416 865.367 276.882C863.319 275.349 860.887 274.246 858.261 273.662C855.635 273.077 852.887 273.027 850.235 273.515L850.673 281.289L846.409 274.626C842.223 276.322 838.99 279.382 837.419 283.134C836.861 284.448 836.522 285.823 836.412 287.22C836.143 290.495 837.119 293.757 839.192 296.512C841.266 299.266 844.324 301.362 847.903 302.483V302.483Z" stroke="#2F2E41" stroke-miterlimit="10"/>
<path d="M866.141 259.516C867.142 257.135 868.821 255.01 871.023 253.336C873.226 251.663 875.882 250.494 878.746 249.938L880.187 257.329L882.861 249.566C886.572 249.614 890.17 250.678 893.135 252.604C896.1 254.53 898.279 257.219 899.356 260.283C900.434 263.347 900.355 266.627 899.131 269.649C897.906 272.672 895.6 275.28 892.545 277.098C889.489 278.917 885.843 279.85 882.132 279.765C878.422 279.679 874.839 278.578 871.901 276.622C868.962 274.665 866.821 271.954 865.786 268.879C864.751 265.805 864.875 262.526 866.141 259.516H866.141Z" fill="#57B894"/>
<path d="M867.103 256.848C868.103 254.467 869.782 252.342 871.985 250.668C874.187 248.994 876.843 247.825 879.707 247.269L881.149 254.66L883.822 246.898C887.534 246.945 891.132 248.009 894.097 249.935C897.062 251.861 899.24 254.551 900.318 257.614C901.395 260.678 901.316 263.958 900.092 266.981C898.868 270.003 896.561 272.612 893.506 274.43C890.451 276.248 886.804 277.182 883.094 277.096C879.383 277.011 875.8 275.91 872.862 273.953C869.924 271.997 867.783 269.285 866.747 266.211C865.712 263.136 865.837 259.857 867.103 256.848H867.103Z" stroke="#2F2E41" stroke-miterlimit="10"/>
<path d="M879.262 339.359C883.304 340.624 887.745 340.562 891.737 339.184C895.729 337.806 898.994 335.21 900.909 331.889C902.825 328.569 903.256 324.756 902.122 321.179C900.988 317.601 898.367 314.509 894.76 312.491L892.706 318.456L891.249 310.978C891.235 310.972 891.22 310.967 891.205 310.963C889.043 310.285 886.747 309.982 884.449 310.069C882.151 310.157 879.895 310.635 877.811 311.475C875.727 312.315 873.855 313.501 872.302 314.965C870.75 316.429 869.547 318.142 868.763 320.008C867.978 321.873 867.627 323.853 867.731 325.835C867.834 327.818 868.389 329.763 869.364 331.56C870.339 333.357 871.715 334.971 873.413 336.309C875.111 337.647 877.099 338.684 879.262 339.359H879.262Z" fill="#57B894"/>
<path d="M880.095 336.656C884.137 337.921 888.578 337.859 892.57 336.481C896.562 335.103 899.827 332.507 901.742 329.186C903.658 325.865 904.089 322.053 902.955 318.475C901.821 314.898 899.201 311.805 895.593 309.787L893.539 315.752L892.082 308.275C892.068 308.269 892.053 308.264 892.038 308.26C889.876 307.582 887.58 307.279 885.282 307.366C882.984 307.454 880.728 307.932 878.644 308.772C876.56 309.612 874.688 310.797 873.135 312.262C871.583 313.726 870.38 315.439 869.596 317.305C868.811 319.17 868.46 321.15 868.564 323.132C868.667 325.114 869.222 327.06 870.197 328.857C871.172 330.654 872.548 332.268 874.246 333.606C875.944 334.944 877.932 335.981 880.095 336.656H880.095Z" stroke="#2F2E41" stroke-miterlimit="10"/>
<path d="M861.031 364.443C861.726 367.854 863.76 370.955 866.791 373.226C869.822 375.498 873.667 376.801 877.68 376.918C881.693 377.034 885.63 375.957 888.832 373.867C892.034 371.776 894.305 368.8 895.264 365.437C896.224 362.074 895.813 358.529 894.102 355.396C892.391 352.263 889.482 349.732 885.865 348.229C882.247 346.726 878.141 346.342 874.234 347.14C870.326 347.939 866.856 349.872 864.405 352.615L872.207 362.744L861.547 357.368C860.72 359.657 860.543 362.083 861.031 364.443Z" fill="#57B894"/>
<path d="M861.752 362.441C862.447 365.852 864.481 368.954 867.512 371.225C870.544 373.496 874.388 374.8 878.401 374.916C882.415 375.033 886.352 373.956 889.554 371.865C892.755 369.775 895.026 366.799 895.986 363.436C896.945 360.073 896.535 356.527 894.824 353.394C893.112 350.261 890.204 347.731 886.586 346.228C882.969 344.725 878.862 344.34 874.955 345.139C871.048 345.937 867.578 347.87 865.127 350.614L872.929 360.743L862.268 355.366C861.442 357.655 861.265 360.081 861.752 362.441V362.441Z" stroke="#2F2E41" stroke-miterlimit="10"/>
<path d="M7.57929 341.278C9.25393 341.804 11.0471 341.986 12.8174 341.811C14.5878 341.637 16.2869 341.11 17.7809 340.272C19.2749 339.435 20.5229 338.309 21.4266 336.985C22.3302 335.66 22.8649 334.172 22.9883 332.639C23.1117 331.106 22.8206 329.569 22.1378 328.149C21.4551 326.73 20.3994 325.466 19.054 324.459C17.7085 323.451 16.1101 322.726 14.3848 322.343C12.6594 321.959 10.8542 321.925 9.11149 322.246L9.39948 327.354L6.5977 322.976C3.84792 324.091 1.7236 326.101 0.69157 328.566C0.325052 329.429 0.102236 330.333 0.02977 331.25C-0.147079 333.403 0.494248 335.546 1.85656 337.355C3.21888 339.165 5.22793 340.542 7.57929 341.278Z" fill="#57B894"/>
<path d="M21.4419 400.521C20.4529 396.177 24.7385 392.326 28.9718 389.822C33.205 387.319 38.1513 384.86 39.5957 380.612C41.6716 374.506 35.4882 368.915 30.6756 364.094C27.1051 360.515 24.0389 356.585 21.5411 352.384C20.4551 350.734 19.7155 348.932 19.3562 347.06C18.9767 344.353 19.9847 341.661 21.0002 339.079C24.3832 330.48 28.0002 321.953 31.8512 313.498" stroke="#2F2E41" stroke-miterlimit="10"/>
<path d="M8.05293 339.964C9.72758 340.489 11.5207 340.671 13.2911 340.496C15.0614 340.322 16.7605 339.795 18.2545 338.957C19.7485 338.12 20.9965 336.994 21.9002 335.67C22.8038 334.345 23.3385 332.857 23.4619 331.324C23.5853 329.791 23.2942 328.254 22.6115 326.834C21.9287 325.415 20.873 324.151 19.5276 323.144C18.1822 322.136 16.5838 321.412 14.8584 321.028C13.133 320.644 11.3278 320.611 9.58513 320.931L9.87312 326.039L7.07134 321.661C4.32156 322.776 2.19724 324.786 1.1652 327.251C0.798689 328.114 0.575877 329.018 0.503406 329.935C0.326545 332.088 0.967868 334.231 2.33019 336.041C3.69251 337.85 5.70157 339.227 8.05293 339.964V339.964Z" stroke="#2F2E41" stroke-miterlimit="10"/>
<path d="M20.0356 311.734C20.6928 310.17 21.7958 308.773 23.2431 307.674C24.6903 306.574 26.4351 305.806 28.3168 305.441L29.2641 310.297L31.0204 305.197C33.459 305.228 35.823 305.927 37.771 307.192C39.7191 308.458 41.1505 310.225 41.8585 312.238C42.5665 314.251 42.5146 316.406 41.7101 318.391C40.9057 320.377 39.3904 322.091 37.383 323.286C35.3756 324.48 32.98 325.094 30.542 325.037C28.1041 324.981 25.7499 324.258 23.8195 322.973C21.8891 321.687 20.4822 319.906 19.8021 317.886C19.122 315.866 19.2037 313.711 20.0356 311.734Z" fill="#57B894"/>
<path d="M20.6675 309.98C21.3247 308.416 22.4277 307.02 23.8749 305.92C25.3221 304.821 27.0669 304.053 28.9486 303.687L29.896 308.543L31.6523 303.443C34.0908 303.475 36.4548 304.173 38.4029 305.439C40.3509 306.704 41.7823 308.471 42.4904 310.484C43.1984 312.497 43.1464 314.652 42.342 316.638C41.5375 318.624 40.0222 320.338 38.0148 321.532C36.0074 322.727 33.6118 323.34 31.1738 323.284C28.7359 323.228 26.3818 322.505 24.4513 321.219C22.5209 319.934 21.1141 318.152 20.4339 316.132C19.7538 314.112 19.8356 311.958 20.6675 309.98V309.98Z" stroke="#2F2E41" stroke-miterlimit="10"/>
<path d="M28.6563 364.192C31.3121 365.023 34.2296 364.982 36.8526 364.077C39.4756 363.172 41.6207 361.466 42.8791 359.284C44.1375 357.102 44.4212 354.598 43.676 352.247C42.9309 349.897 41.209 347.865 38.8387 346.539L37.4891 350.458L36.5322 345.545C36.5227 345.541 36.5129 345.538 36.5029 345.535C35.0823 345.09 33.5739 344.89 32.0638 344.948C30.5537 345.005 29.0715 345.319 27.702 345.871C26.3324 346.422 25.1024 347.202 24.0822 348.164C23.0619 349.126 22.2715 350.252 21.756 351.477C21.2406 352.703 21.0102 354.004 21.078 355.307C21.1458 356.609 21.5106 357.887 22.1514 359.068C22.7922 360.249 23.6965 361.309 24.8127 362.188C25.9288 363.068 27.2349 363.749 28.6563 364.192Z" fill="#57B894"/>
<path d="M29.2036 362.416C31.8594 363.247 34.7768 363.206 37.3998 362.301C40.0228 361.396 42.168 359.69 43.4264 357.508C44.6848 355.326 44.9684 352.822 44.2233 350.471C43.4781 348.121 41.7563 346.089 39.3859 344.763L38.0364 348.682L37.0794 343.769C37.07 343.765 37.0602 343.762 37.0502 343.759C35.6299 343.315 34.1221 343.116 32.6127 343.174C31.1034 343.233 29.6222 343.547 28.2536 344.099C25.4896 345.214 23.3522 347.23 22.3117 349.704C21.2712 352.178 21.4127 354.907 22.7052 357.291C23.9977 359.675 26.3352 361.519 29.2036 362.416V362.416Z" stroke="#2F2E41" stroke-miterlimit="10"/>
<path d="M16.6787 380.673C17.1353 382.914 18.4715 384.951 20.4632 386.444C22.4548 387.936 24.9808 388.792 27.6175 388.869C30.2542 388.945 32.8412 388.238 34.9447 386.864C37.0482 385.491 38.5403 383.535 39.1707 381.326C39.8011 379.116 39.5315 376.787 38.4071 374.728C37.2827 372.67 35.3719 371.007 32.9951 370.02C30.6184 369.032 27.9202 368.78 25.3531 369.304C22.786 369.829 20.5061 371.099 18.8958 372.902L24.0219 379.556L17.0177 376.024C16.4747 377.528 16.3584 379.122 16.6787 380.673Z" fill="#57B894"/>
<path d="M17.1523 379.357C17.609 381.598 18.9452 383.636 20.9368 385.128C22.9285 386.62 25.4544 387.477 28.0911 387.553C30.7278 387.63 33.3148 386.922 35.4183 385.549C37.5219 384.175 39.0139 382.22 39.6443 380.01C40.2748 377.801 40.0052 375.471 38.8808 373.413C37.7564 371.354 35.8455 369.692 33.4688 368.704C31.092 367.717 28.3938 367.464 25.8267 367.989C23.2596 368.514 20.9797 369.784 19.3694 371.586L24.4955 378.241L17.4914 374.709C16.9483 376.212 16.832 377.807 17.1523 379.357V379.357Z" stroke="#2F2E41" stroke-miterlimit="10"/>
<path d="M404.671 247.561C412.571 247.561 418.975 240.413 418.975 231.595C418.975 222.777 412.571 215.628 404.671 215.628C396.771 215.628 390.367 222.777 390.367 231.595C390.367 240.413 396.771 247.561 404.671 247.561Z" fill="#2F2E41"/>
<path d="M482.501 247.924C490.401 247.924 496.805 240.776 496.805 231.958C496.805 223.14 490.401 215.992 482.501 215.992C474.601 215.992 468.197 223.14 468.197 231.958C468.197 240.776 474.601 247.924 482.501 247.924Z" fill="#2F2E41"/>
<path d="M471.563 279.131C471.563 286.345 459.884 292.194 445.479 292.194C431.074 292.194 419.396 286.345 419.396 279.131C419.396 272.882 428.155 267.657 439.858 266.38C441.722 266.168 443.6 266.063 445.479 266.068C448.628 266.059 451.769 266.351 454.844 266.938C464.621 268.818 471.563 273.572 471.563 279.131Z" fill="#2F2E41"/>
<path d="M408.036 243.933C415.936 243.933 422.34 236.784 422.34 227.966C422.34 219.148 415.936 212 408.036 212C400.136 212 393.732 219.148 393.732 227.966C393.732 236.784 400.136 243.933 408.036 243.933Z" stroke="#2F2E41" stroke-miterlimit="10"/>
<path d="M485.866 244.295C493.766 244.295 500.17 237.147 500.17 228.329C500.17 219.511 493.766 212.363 485.866 212.363C477.967 212.363 471.562 219.511 471.562 228.329C471.562 237.147 477.967 244.295 485.866 244.295Z" stroke="#2F2E41" stroke-miterlimit="10"/>
<path d="M448.844 288.566C463.25 288.566 474.928 282.717 474.928 275.502C474.928 268.288 463.25 262.439 448.844 262.439C434.439 262.439 422.761 268.288 422.761 275.502C422.761 282.717 434.439 288.566 448.844 288.566Z" stroke="#2F2E41" stroke-miterlimit="10"/>
<path d="M455.155 268.027C455.162 268.94 454.765 269.82 454.045 270.489C453.705 270.809 453.291 271.065 452.831 271.241C452.37 271.417 451.873 271.509 451.369 271.511H442.955C441.918 271.48 440.938 271.096 440.228 270.443C439.519 269.79 439.138 268.922 439.169 268.027C439.164 267.32 439.405 266.627 439.859 266.038C441.721 265.812 443.599 265.7 445.479 265.705C448.632 265.696 451.776 266.008 454.844 266.634C455.052 267.076 455.158 267.55 455.155 268.027Z" fill="white"/>
<path d="M408.036 227.24C410.36 227.24 412.243 225.616 412.243 223.612C412.243 221.608 410.36 219.983 408.036 219.983C405.713 219.983 403.829 221.608 403.829 223.612C403.829 225.616 405.713 227.24 408.036 227.24Z" fill="white"/>
<path d="M486.287 227.24C488.611 227.24 490.494 225.616 490.494 223.612C490.494 221.608 488.611 219.983 486.287 219.983C483.964 219.983 482.08 221.608 482.08 223.612C482.08 225.616 483.964 227.24 486.287 227.24Z" fill="white"/>
<path opacity="0.3" d="M490.494 261.35C492.818 261.35 494.701 259.726 494.701 257.721C494.701 255.717 492.818 254.093 490.494 254.093C488.171 254.093 486.287 255.717 486.287 257.721C486.287 259.726 488.171 261.35 490.494 261.35Z" fill="#00BFA6"/>
<path opacity="0.3" d="M387.843 261.35C390.166 261.35 392.05 259.726 392.05 257.721C392.05 255.717 390.166 254.093 387.843 254.093C385.519 254.093 383.636 255.717 383.636 257.721C383.636 259.726 385.519 261.35 387.843 261.35Z" fill="#00BFA6"/>
</g>
<defs>
<clipPath id="clip0">
<rect width="904" height="424" fill="white"/>
</clipPath>
</defs>
</svg>
